# xmcd CD database file
#
# Track frame offsets:
#	150
#	16143
#	37076
#	52745
#	64559
#	81970
#	95727
#	120145
#	135603
#	152941
#	168280
#	184808
#	198956
#	214404
#
# Disc length: 3127 seconds
#
# Revision: 3
# Processed by: cddbd v1.5.2PL0 Copyright (c) Steve Scherf et al.
# Submitted via: CDex 1.51
#
DISCID=b70c350e
DTITLE=TRIESTE RAGTIME JAZZ BAND - DIXIELAND COLLECTIO N.1
DYEAR=2008
DGENRE=Jazz
TTITLE0=12TH STREET RAG
TTITLE1=JELLY ROLL
TTITLE2=AIN'T MISBEHAVIN
TTITLE3=THAT'S A PLENTY
TTITLE4=RIVERBOAT SHUFFLE
TTITLE5=DANS LE RUES D'ANTIBES
TTITLE6=TIN ROOF BLUES
TTITLE7=I'VE GOT A FEELIN'
TTITLE8=STRUTTIN' WITH SOME BARBECUE
TTITLE9=FIVE FOOT TWO
TTITLE10=BOURBON STREET PARADE
TTITLE11=JAZZ ME BLUES
TTITLE12=KEEPIN' OUT OF MISCHIEF NOW
TTITLE13=TIGER RAG
EXTD=YEAR: 2008
EXTT0=
EXTT1=
EXTT2=
EXTT3=
EXTT4=
EXTT5=
EXTT6=
EXTT7=
EXTT8=
EXTT9=
EXTT10=
EXTT11=
EXTT12=
EXTT13=
PLAYORDER=
